<svg width="126" height="30" viewBox="0 0 126 30" fill="none" xmlns="http://www.w3.org/2000/svg">
<g clip-path="url(#clip0_47_262)">
<path d="M2.80091 24.1745C2.80091 25.3082 2.33409 25.8751 1.40045 25.8751C0.466818 25.8751 0 25.3082 0 24.1745V22.6073C0 21.0291 0.744685 20.2177 2.23406 20.1732C2.67864 19.2174 3.15658 17.628 3.66785 15.405C4.17913 13.1599 4.60149 10.7368 4.93493 8.136C5.26837 5.53517 5.43509 3.22331 5.43509 1.20044H17.0722V20.2066C18.4059 20.2733 19.0728 21.0735 19.0728 22.6073V24.1745C19.0728 25.3082 18.606 25.8751 17.6724 25.8751C16.7387 25.8751 16.2719 25.3082 16.2719 24.1745V22.8074H2.80091V24.1745ZM8.4694 4.00135C8.38049 6.42435 8.00259 9.29194 7.3357 12.6041C6.69105 15.8941 6.01305 18.3615 5.30171 20.0065H14.2713V4.00135H8.4694Z" fill="#191919"/>
<path d="M30.7511 22.8074C28.5948 22.8074 26.8943 22.6185 25.6495 22.2406C24.4046 21.8404 23.5043 21.1958 22.9486 20.3066C22.3928 19.4174 22.115 18.2059 22.115 16.6721V13.171C22.115 11.6371 22.3928 10.4256 22.9486 9.53646C23.5043 8.64728 24.4046 8.01374 25.6495 7.63584C26.8943 7.23571 28.5948 7.03564 30.7511 7.03564H31.7181C33.8743 7.03564 35.5638 7.23571 36.7864 7.63584C38.0312 8.01374 38.9315 8.64728 39.4873 9.53646C40.043 10.4256 40.3209 11.6371 40.3209 13.171V16.6721C40.3209 18.2059 40.043 19.4174 39.4873 20.3066C38.9315 21.1958 38.0312 21.8404 36.7864 22.2406C35.5638 22.6185 33.8743 22.8074 31.7181 22.8074H30.7511ZM31.7181 20.0065C33.452 20.0065 34.7079 19.9287 35.486 19.7731C36.2862 19.5953 36.8197 19.2729 37.0865 18.8061C37.3755 18.3393 37.52 17.5946 37.52 16.5721V13.271C37.52 12.2485 37.3755 11.5038 37.0865 11.0369C36.8197 10.5701 36.2862 10.2589 35.486 10.1033C34.7079 9.92548 33.452 9.83655 31.7181 9.83655H30.7511C28.995 9.83655 27.7168 9.92548 26.9165 10.1033C26.1385 10.2589 25.605 10.5701 25.316 11.0369C25.0493 11.5038 24.9159 12.2485 24.9159 13.271V16.5721C24.9159 17.5946 25.0493 18.3393 25.316 18.8061C25.605 19.2729 26.1385 19.5953 26.9165 19.7731C27.7168 19.9287 28.995 20.0065 30.7511 20.0065H31.7181Z" fill="#252525"/>
<path d="M54.5004 18.8395V18.8728C54.1892 19.184 53.8446 19.3396 53.4667 19.3396C53.0666 19.3396 52.6887 19.184 52.333 18.8728L47.2647 11.6371V21.3403C47.2647 22.474 46.7979 23.0408 45.8643 23.0408C44.9307 23.0408 44.4638 22.5073 44.4638 21.4403V8.43611C44.4638 7.34687 44.9084 6.80225 45.7976 6.80225C46.3533 6.80225 46.8313 7.09122 47.2314 7.66919L53.4001 16.3053L59.6021 7.63584C60.0244 7.08011 60.4912 6.80225 61.0025 6.80225C61.9139 6.80225 62.3696 7.34687 62.3696 8.43611V21.4403C62.3696 22.5073 61.9028 23.0408 60.9692 23.0408C60.0355 23.0408 59.5687 22.474 59.5687 21.3403V11.6371L54.5004 18.8395Z" fill="#313131"/>
<path d="M83.6692 7.30235C83.6692 9.05847 83.258 10.47 82.4355 11.5371C81.613 12.6041 80.4238 13.2598 78.8677 13.5044L83.2358 20.7734C83.3692 20.9957 83.4358 21.2402 83.4358 21.5069C83.4358 21.996 83.1913 22.385 82.7023 22.674C82.4133 22.8518 82.1576 22.9407 81.9354 22.9407C81.4908 22.9407 81.1129 22.6962 80.8017 22.2072L75.7334 13.7711L75.6333 13.6044H70.9652V21.2068C70.9652 21.6514 70.8429 21.996 70.5984 22.2405C70.3538 22.485 70.0093 22.6073 69.5647 22.6073C69.1201 22.6073 68.7756 22.485 68.531 22.2405C68.2865 21.996 68.1642 21.6514 68.1642 21.2068V1.40045C68.1642 0.955859 68.2865 0.611308 68.531 0.366785C68.7756 0.122262 69.1201 0 69.5647 0H77.3672C79.4123 0 80.9684 0.544619 82.0354 1.63386C83.1246 2.70087 83.6692 4.25692 83.6692 6.30202V7.30235ZM80.8683 6.30202C80.8683 5.05718 80.6016 4.16801 80.0681 3.6345C79.5346 3.07877 78.6343 2.80089 77.3672 2.80089H70.9652V10.8035H77.3672C78.6343 10.8035 79.5346 10.5367 80.0681 10.0032C80.6016 9.46971 80.8683 8.56943 80.8683 7.30235V6.30202Z" fill="#3C3C3C"/>
<path d="M91.005 15.3049V16.1052C91.005 17.0833 91.1161 17.8391 91.3384 18.3726C91.5607 18.8839 91.9386 19.2507 92.4721 19.473C93.0056 19.6953 93.7614 19.8064 94.7395 19.8064H97.4737C98.6074 19.8064 99.441 19.7064 99.9745 19.5063C100.53 19.284 100.897 18.9061 101.075 18.3726C101.208 17.928 101.386 17.6057 101.608 17.4056C101.831 17.1833 102.153 17.0722 102.575 17.0722C102.998 17.0722 103.32 17.1722 103.542 17.3723C103.787 17.5501 103.909 17.8169 103.909 18.1725C103.909 18.3282 103.898 18.4393 103.876 18.506C103.387 21.2402 101.253 22.6073 97.4737 22.6073H94.7395C92.5166 22.6073 90.8716 22.0738 89.8046 21.0068C88.7376 19.9398 88.2041 18.3059 88.2041 16.1052V12.2373C88.2041 9.99212 88.7376 8.33603 89.8046 7.26902C90.8716 6.20201 92.5166 5.67962 94.7395 5.70185H97.4737C99.6967 5.70185 101.342 6.23535 102.409 7.30237C103.476 8.36938 104.009 10.0144 104.009 12.2373V13.9045C104.009 14.3491 103.887 14.6936 103.642 14.9382C103.398 15.1827 103.053 15.3049 102.609 15.3049H91.005ZM91.005 12.504H101.208V12.2373C101.208 11.2592 101.097 10.5034 100.875 9.96989C100.653 9.43638 100.275 9.05849 99.7411 8.8362C99.2076 8.6139 98.4518 8.50275 97.4737 8.50275H94.7395C93.7614 8.48052 93.0056 8.58056 92.4721 8.80285C91.9386 9.02515 91.5607 9.40305 91.3384 9.93655C91.1161 10.4701 91.005 11.237 91.005 12.2373V12.504Z" fill="#484848"/>
<path d="M119.44 5.7019C121.663 5.7019 123.308 6.23541 124.375 7.30242C125.442 8.36943 125.975 10.0144 125.975 12.2373V16.0719C125.975 18.2948 125.442 19.9398 124.375 21.0068C123.308 22.0738 121.663 22.6073 119.44 22.6073H112.971V27.8757C112.971 28.3203 112.849 28.6649 112.604 28.9094C112.36 29.1539 112.015 29.2762 111.57 29.2762C111.126 29.2762 110.781 29.1539 110.537 28.9094C110.292 28.6649 110.17 28.3203 110.17 27.8757V7.10235C110.17 6.65776 110.292 6.31321 110.537 6.06869C110.781 5.82417 111.126 5.7019 111.57 5.7019C112.015 5.7019 112.36 5.82417 112.604 6.06869C112.849 6.31321 112.971 6.65776 112.971 7.10235V7.53583C114.194 6.31321 115.927 5.7019 118.173 5.7019H119.44ZM123.174 12.2373C123.174 11.2592 123.063 10.5034 122.841 9.96994C122.619 9.43643 122.241 9.05854 121.707 8.83625C121.174 8.61395 120.418 8.5028 119.44 8.5028H118.173C116.705 8.5028 115.483 8.68064 114.505 9.03631C113.549 9.39198 113.038 9.91437 112.971 10.6035V19.8064H119.44C120.418 19.8064 121.174 19.6953 121.707 19.473C122.241 19.2507 122.619 18.8728 122.841 18.3393C123.063 17.8058 123.174 17.05 123.174 16.0719V12.2373Z" fill="#545454"/>
</g>
<defs>
<clipPath id="clip0_47_262">
<rect width="126" height="29.2053" fill="white"/>
</clipPath>
</defs>
</svg>
